<svg id="Calque_1" data-name="Calque 1" xmlns="http://www.w3.org/2000/svg" xmlns:xlink="http://www.w3.org/1999/xlink" viewBox="0 0 321.83 50.51"><defs><style>.cls-1{fill:none;}.cls-2{clip-path:url(#clip-path);}.cls-3{fill:#014d6f;}.cls-4{opacity:0.5;}.cls-5{clip-path:url(#clip-path-3);}</style><clipPath id="clip-path" transform="translate(-1.75 -1.87)"><rect class="cls-1" x="1.75" y="1.87" width="321.83" height="50.51"/></clipPath><clipPath id="clip-path-3" transform="translate(-1.75 -1.87)"><rect class="cls-1" x="271.27" y="1.87" width="52.31" height="50.51"/></clipPath></defs><title>logo</title><g class="cls-2"><g class="cls-2"><path class="cls-3" d="M108.23,26.51c0,.2,0,.4,0,.61v.14c0,7-4.93,13-12.28,13S83.49,34.13,83.49,27.13V27c0-7,4.92-13,12.35-13a12,12,0,0,1,7.5,2.53l7.14-10.6A27,27,0,0,0,96,1.87c-15,0-26.22,11.31-26.22,25.25v.14c0,13.94,11.1,25.12,26.08,25.12,12.29,0,22-7.61,25.17-18Z" transform="translate(-1.75 -1.87)"/><rect class="cls-3" y="0.97" width="13.46" height="48.56"/><polygon class="cls-3" points="18.87 0.97 31.43 0.97 51.41 26.64 51.41 0.97 64.73 0.97 64.73 49.53 53 49.53 32.19 22.9 32.19 49.53 18.87 49.53 18.87 0.97"/><path class="cls-3" d="M106.64,27.26v-.14c0-13.94,11.24-25.25,26.22-25.25S159,13,159,27v.13c0,13.95-11.24,25.26-26.23,25.26s-26.08-11.17-26.08-25.12m38.5,0v-.14c0-7.07-5-13.11-12.42-13.11s-12.35,6-12.35,13v.13c0,7,5.06,13.12,12.49,13.12s12.28-6,12.28-13" transform="translate(-1.75 -1.87)"/><polygon class="cls-3" points="160.67 0.97 173.22 0.97 193.2 26.64 193.2 0.97 206.53 0.97 206.53 49.53 194.8 49.53 173.99 22.9 173.99 49.53 160.67 49.53 160.67 0.97"/><rect class="cls-3" x="212.01" y="0.97" width="13.46" height="48.56"/><polygon class="cls-3" points="242.74 12.77 228.24 12.77 228.24 0.97 270.77 0.97 270.77 12.77 256.2 12.77 256.2 49.53 242.74 49.53 242.74 12.77"/><g class="cls-4"><g class="cls-5"><path class="cls-3" d="M271.27,27.26v-.14c0-13.94,11.24-25.25,26.22-25.25S323.58,13,323.58,27v.13c0,13.95-11.24,25.26-26.23,25.26s-26.08-11.17-26.08-25.12m38.5,0v-.14c0-7.07-5-13.11-12.42-13.11S285,20,285,27v.13c0,7,5.06,13.12,12.49,13.12s12.28-6,12.28-13" transform="translate(-1.75 -1.87)"/></g></g></g></g></svg>